<svg xmlns="http://www.w3.org/2000/svg" xmlns:xlink="http://www.w3.org/1999/xlink" width="100%" height="100%" version="1.1" viewBox="0 0 24 24" xml:space="preserve" style="fill-rule:evenodd;clip-rule:evenodd"><path d="M4,16C4,16.88 4.39,17.67 5,18.22L5,20C5,20.55 5.45,21 6,21L7,21C7.55,21 8,20.55 8,20L8,19L16,19L16,20C16,20.55 16.45,21 17,21L18,21C18.55,21 19,20.55 19,20L19,18.22C19.61,17.67 20,16.88 20,16L20,6C20,2.5 16.42,2 12,2C7.58,2 4,2.5 4,6L4,16Z" style="fill:#f9f9f9;fill-rule:nonzero;stroke:#fff;stroke-width:3px"/><path d="M4,16C4,16.88 4.39,17.67 5,18.22L5,20C5,20.55 5.45,21 6,21L7,21C7.55,21 8,20.55 8,20L8,19L16,19L16,20C16,20.55 16.45,21 17,21L18,21C18.55,21 19,20.55 19,20L19,18.22C19.61,17.67 20,16.88 20,16L20,6C20,2.5 16.42,2 12,2C7.58,2 4,2.5 4,6L4,16ZM7.5,17C6.67,17 6,16.33 6,15.5C6,14.67 6.67,14 7.5,14C8.33,14 9,14.67 9,15.5C9,16.33 8.33,17 7.5,17ZM16.5,17C15.67,17 15,16.33 15,15.5C15,14.67 15.67,14 16.5,14C17.33,14 18,14.67 18,15.5C18,16.33 17.33,17 16.5,17ZM18,11L6,11L6,6L18,6L18,11Z" style="fill:purple;fill-rule:nonzero"/><g><rect width="1.364" height="1.378" x="9.609" y="12.157" style="fill:#fff;fill-rule:nonzero"/><rect width="1.364" height="1.378" x="11.442" y="12.157" style="fill:#fff;fill-rule:nonzero"/><rect width="1.364" height="1.378" x="13.246" y="12.157" style="fill:#fff;fill-rule:nonzero"/><circle cx="11.157" cy="14.613" r=".741" style="fill:#fff"/><circle cx="13.092" cy="14.613" r=".741" style="fill:#fff"/></g></svg>